HIERARCHY
ROOT reference
{
  OFFSET 0 0 0
  CHANNELS 6 Xposition Yposition Zposition Zrotation Xrotation Yrotation
  JOINT Hips
  {
    OFFSET 16.5737 71.9916 83.7692
    CHANNELS 6 Xposition Yposition Zposition Zrotation Xrotation Yrotation
    JOINT Spine
    {
      OFFSET 0 7.81434 0
      CHANNELS 6 Xposition Yposition Zposition Zrotation Xrotation Yrotation
      JOINT Spine1
      {
        OFFSET 0 23.3781 0
        CHANNELS 6 Xposition Yposition Zposition Zrotation Xrotation Yrotation
        JOINT Neck
        {
          OFFSET 0 23.2821 2.11656
          CHANNELS 6 Xposition Yposition Zposition Zrotation Xrotation Yrotation
          JOINT Head
          {
            OFFSET 0 13.3416 -1.90594
            CHANNELS 6 Xposition Yposition Zposition Zrotation Xrotation Yrotation
            End Site
            {
              OFFSET 0 23.8242 0
            }
          }
        }
        JOINT LeftShoulder
        {
          OFFSET 3.82472 21.4916 -0.175476
          CHANNELS 6 Xposition Yposition Zposition Zrotation Xrotation Yrotation
          JOINT LeftArm
          {
            OFFSET 10.8239 0 0
            CHANNELS 6 Xposition Yposition Zposition Zrotation Xrotation Yrotation
            JOINT LeftForeArm
            {
              OFFSET 28.5356 0 0
              CHANNELS 6 Xposition Yposition Zposition Zrotation Xrotation Yrotation
              JOINT LeftHand
              {
                OFFSET 24.5315 0 0
                CHANNELS 6 Xposition Yposition Zposition Zrotation Xrotation Yrotation
                End Site
                {
                  OFFSET 14.2945 0 0
                }
              }
            }
          }
        }
        JOINT RightShoulder
        {
          OFFSET -3.77033 21.4916 -0.175476
          CHANNELS 6 Xposition Yposition Zposition Zrotation Xrotation Yrotation
          JOINT RightArm
          {
            OFFSET -10.8239 0 0
            CHANNELS 6 Xposition Yposition Zposition Zrotation Xrotation Yrotation
            JOINT RightForeArm
            {
              OFFSET -28.5356 0 0
              CHANNELS 6 Xposition Yposition Zposition Zrotation Xrotation Yrotation
              JOINT RightHand
              {
                OFFSET -24.5315 0 0
                CHANNELS 6 Xposition Yposition Zposition Zrotation Xrotation Yrotation
                End Site
                {
                  OFFSET -14.2945 0 0
                }
              }
            }
          }
        }
      }
    }
    JOINT LeftUpLeg
    {
      OFFSET 9.52968 0 0
      CHANNELS 6 Xposition Yposition Zposition Zrotation Xrotation Yrotation
      JOINT LeftLeg
      {
        OFFSET 0 -40.1884 0
        CHANNELS 6 Xposition Yposition Zposition Zrotation Xrotation Yrotation
        JOINT LeftFoot
        {
          OFFSET 0 -39.9954 0
          CHANNELS 6 Xposition Yposition Zposition Zrotation Xrotation Yrotation
          JOINT LeftToeBase
          {
            OFFSET 0 -6.19429 14.2945
            CHANNELS 6 Xposition Yposition Zposition Zrotation Xrotation Yrotation
            End Site
            {
              OFFSET 0 0 3.81187
            }
          }
        }
      }
    }
    JOINT RightUpLeg
    {
      OFFSET -9.52968 0 0
      CHANNELS 6 Xposition Yposition Zposition Zrotation Xrotation Yrotation
      JOINT RightLeg
      {
        OFFSET 0 -40.1884 0
        CHANNELS 6 Xposition Yposition Zposition Zrotation Xrotation Yrotation
        JOINT RightFoot
        {
          OFFSET 0 -39.9954 0
          CHANNELS 6 Xposition Yposition Zposition Zrotation Xrotation Yrotation
          JOINT RightToeBase
          {
            OFFSET 0 -6.19429 14.2945
            CHANNELS 6 Xposition Yposition Zposition Zrotation Xrotation Yrotation
            End Site
            {
              OFFSET 0 0 3.81187
            }
          }
        }
      }
    }
  }
}
MOTION
Frames:	5
Frame Time:	0.004
0 0 0 0 0 -0 -0.872211 80.2639 -206.491 1.19833 -3.38124 1.16169 -8.88178e-016 7.81434 0 -1.67279 -3.1946 -0.257007 4.44089e-016 23.3781 0 0.403736 3.36331 -0.223808 2.22045e-016 23.2821 2.11656 0.30753 27.815 1.25453 8.88178e-016 13.3416 -1.90594 -1.25668 -6.03254 1.09485 3.82472 21.4916 -0.175476 14.3767 2.45466 6.25186 10.8239 2.84217e-014 0 -19.7863 -0.550616 4.8825 28.5356 0 2.84217e-014 2.46575 -7.392 0.195815 24.5315 -2.84217e-014 0 4.55732 -7.45391 -1.46263 -3.77033 21.4916 -0.175476 -15.9055 -1.2284 7.69926 -10.8239 2.84217e-014 0 13.2902 -1.84132 -4.48003 -28.5356 0 0 -0.403314 3.34204 -1.60283 -24.5315 0 0 -7.36916 3.19019 2.27482 9.52968 0 2.84217e-014 0.79634 12.4965 -2.41794 -1.77636e-015 -40.1884 2.84217e-014 -4.39786 -6.07346 -1.57985 0 -39.9954 0 6.30282 -10.9961 6.76386 0 -6.19429 14.2945 -7.95139e-016 -1.59028e-015 7.95139e-016 -9.52968 0 0 -1.72725 8.44387 2.92078 0 -40.1884 2.84217e-014 2.71142 -0.553941 -3.73565 -1.77636e-015 -39.9954 2.84217e-014 -8.28977 -14.6913 -2.50187 3.55271e-015 -6.19429 14.2945 8.44835e-016 0 1.98785e-016 
0 0 0 0 0 -0 -0.872211 80.2639 -206.491 1.19818 -3.37372 1.16168 0 7.81434 0 -1.67279 -3.1946 -0.257007 0 23.3781 0 0.403506 3.30443 -0.223795 0 23.2821 2.11656 0.299006 27.8675 1.27058 -1.77636e-015 13.3416 -1.90594 -1.29417 -6.05479 1.10379 3.82472 21.4916 -0.175476 14.3864 2.47515 6.21905 10.8239 2.84217e-014 0 -19.7838 -0.576808 4.91376 28.5356 -2.84217e-014 0 2.45835 -7.37705 0.209944 24.5315 -2.84217e-014 0 4.58207 -7.43887 -1.44523 -3.77033 21.4916 -0.175476 -15.9024 -1.20481 7.74579 -10.8239 0 -2.84217e-014 13.2597 -1.87461 -4.50413 -28.5356 0 0 -0.385999 3.34837 -1.60285 -24.5315 2.84217e-014 -2.84217e-014 -7.41155 3.19693 2.25867 9.52968 1.42109e-014 0 0.784872 12.4892 -2.42746 8.88178e-016 -40.1884 0 -4.39356 -6.07358 -1.53921 0 -39.9954 0 6.27818 -10.9841 6.72832 0 -6.19429 14.2945 -2.98177e-016 0 1.59028e-015 -9.52968 -1.42109e-014 2.84217e-014 -1.73945 8.43347 2.9207 0 -40.1884 -2.84217e-014 2.71142 -0.553941 -3.73565 0 -39.9954 -2.84217e-014 -8.31598 -14.6913 -2.50187 0 -6.19429 14.2945 -2.23633e-015 0 1.98785e-016 
0 0 0 0 0 -0 -0.872211 80.2639 -206.492 1.19805 -3.36725 1.16167 0 7.81434 0 -1.67279 -3.1946 -0.257007 0 23.3781 2.84217e-014 0.403387 3.27422 -0.223788 2.22045e-016 23.2821 2.11656 0.295521 27.9182 1.2759 -8.88178e-016 13.3416 -1.90594 -1.30561 -6.09427 1.10723 3.82472 21.4916 -0.175476 14.3984 2.49756 6.20005 10.8239 2.84217e-014 0 -19.7801 -0.61802 4.92982 28.5356 0 -2.84217e-014 2.45926 -7.36008 0.215393 24.5315 0 0 4.59338 -7.42209 -1.44347 -3.77033 21.4916 -0.175476 -15.8887 -1.19755 7.78529 -10.8239 0 0 13.2447 -1.88056 -4.53387 -28.5356 2.84217e-014 0 -0.387413 3.3539 -1.60285 -24.5315 0 0 -7.39671 3.2028 2.2581 9.52968 -1.42109e-014 0 0.790851 12.4794 -2.43065 -8.88178e-016 -40.1884 2.84217e-014 -4.39718 -6.06801 -1.57478 -8.88178e-016 -39.9954 2.84217e-014 6.28863 -10.976 6.75897 3.55271e-015 -6.19429 14.2945 8.82781e-032 3.18055e-015 -1.59028e-015 -9.52968 -1.42109e-014 0 -1.73777 8.42541 2.91484 1.77636e-015 -40.1884 0 2.71142 -0.553941 -3.73565 1.77636e-015 -39.9954 0 -8.31153 -14.6913 -2.49748 0 -6.19429 14.2945 6.4605e-016 3.18055e-015 1.98785e-016 
0 0 0 0 0 -0 -0.872211 80.2643 -206.492 1.19991 -3.36392 1.16166 0 7.81434 0 -1.67276 -3.18882 -0.257005 -4.44089e-016 23.3781 0 0.403259 3.24149 -0.223781 -2.22045e-016 23.2821 2.11656 0.271429 27.9232 1.29662 8.88178e-016 13.3416 -1.90594 -1.29289 -6.07128 1.1288 3.82472 21.4916 -0.175476 14.4063 2.49809 6.18504 10.8239 2.84217e-014 0 -19.7844 -0.565626 4.95137 28.5356 2.84217e-014 2.84217e-014 2.48112 -7.38353 0.22307 24.5315 0 2.84217e-014 4.58724 -7.44538 -1.43616 -3.77033 21.4916 -0.175476 -15.8879 -1.18772 7.81615 -10.8239 0 2.84217e-014 13.23 -1.90565 -4.5497 -28.5356 2.84217e-014 2.84217e-014 -0.379898 3.38295 -1.6029 -24.5315 -2.84217e-014 0 -7.37277 3.23282 2.2519 9.52968 1.42109e-014 0 0.791278 12.4812 -2.43342 -8.88178e-016 -40.1884 2.84217e-014 -4.39338 -6.08263 -1.53519 0 -39.9954 -2.84217e-014 6.25126 -10.9643 6.72913 3.55271e-015 -6.19429 14.2945 8.94531e-016 1.59028e-015 -0 -9.52968 0 0 -1.73659 8.42514 2.90779 1.77636e-015 -40.1884 0 2.71235 -0.553941 -3.73565 0 -39.9954 0 -8.30715 -14.6915 -2.48551 0 -6.19429 14.2945 -9.93923e-017 -1.59028e-015 -3.97569e-016 
0 0 0 0 0 -0 -0.872211 80.2648 -206.492 1.20197 -3.36564 1.16167 0 7.81434 -2.84217e-014 -1.67274 -3.1839 -0.257004 0 23.3781 0 0.403181 3.22139 -0.223776 -2.22045e-016 23.2821 2.11656 0.303462 27.9466 1.29149 0 13.3416 -1.90594 -1.34193 -6.08676 1.11751 3.82472 21.4916 -0.175476 14.4213 2.51121 6.1654 10.8239 0 0 -19.7809 -0.604602 4.96532 28.5356 0 -2.84217e-014 2.47042 -7.35557 0.232215 24.5315 2.84217e-014 -2.84217e-014 4.58061 -7.41775 -1.4421 -3.77033 21.4916 -0.175476 -15.8764 -1.18292 7.82679 -10.8239 0 -2.84217e-014 13.2193 -1.8922 -4.55184 -28.5356 0 0 -0.380633 3.38422 -1.6029 -24.5315 0 0 -7.40191 3.23257 2.26593 9.52968 1.42109e-014 -2.84217e-014 0.790597 12.4813 -2.43636 -8.88178e-016 -40.1884 0 -4.39414 -6.06199 -1.54754 0 -39.9954 0 6.2809 -10.9829 6.74408 0 -6.19429 14.2945 9.93923e-016 -1.59028e-015 7.95139e-016 -9.52968 1.42109e-014 -2.84217e-014 -1.73965 8.42584 2.92415 -1.77636e-015 -40.1884 2.84217e-014 2.71334 -0.553942 -3.73329 0 -39.9954 0 -8.3261 -14.6932 -2.52016 -3.55271e-015 -6.19429 14.2945 9.93923e-016 3.18055e-015 -1.98785e-016 
